<svg version="1.1" xmlns="http://www.w3.org/2000/svg" viewBox="0 0 597.25 293.75" width="597.25" height="293.75">
  <!-- svg-source:excalidraw -->
  
  <defs>
    <style>
      @font-face {
        font-family: "Virgil";
        src: url("https://excalidraw.com/FG_Virgil.woff2");
      }
      @font-face {
        font-family: "Cascadia";
        src: url("https://excalidraw.com/Cascadia.woff2");
      }
    </style>
  </defs>
  <g transform="translate(13.5 13.25) rotate(0 96.5 38.5)"><path d="M1.7064900491386652 1.9811619725078344 C70.63099147519097 1.7784866527933627, 140.19881298486143 2.552318318309262, 194.90430600382388 -1.2448894176632166 M-0.9057200150564313 -0.010846788994967937 C57.76382622001693 -1.9316730336938053, 114.96130652949215 -0.5210505859646946, 193.41912526916713 -0.4041320336982608 M194.999861786142 -0.6717211399227381 C191.9714210919384 24.767574859689926, 193.1029553703312 49.2567575627938, 191.69298757053912 78.20301749370992 M192.76435656379908 -0.7443088544532657 C192.24851921017282 18.09677949724719, 193.71201890523545 37.391699521616104, 192.30295745562762 76.05934060085565 M194.60749782063067 76.52729966305196 C144.3802578532137 76.18067755403928, 99.13142097722738 77.26924081745557, 1.972264001145959 76.15559931658208 M193.37213436793536 76.29807460773736 C135.09039650941267 77.2625621827785, 77.88291840888559 78.67631077491679, 0.47919667791575193 76.30283967126161 M0.9181310627609491 76.10453053377569 C-0.6849948325101286 58.73478233637288, -0.5163244762364775 42.343509709648785, -0.8749911691993475 -0.698728421702981 M-0.6737257139757276 77.58606067765504 C0.32660491970367733 55.9199456767179, -0.32694364878349 32.607625727355476, 0.46880851220339537 -0.14430742990225554" stroke="#000000" stroke-width="1" fill="none"></path></g><g transform="translate(10 206.75) rotate(0 96.5 38.5)"><path d="M-0.9736361894756556 1.6074978206306696 C39.27257325956598 -2.6373052185494457, 79.61078366991133 -0.984364766450599, 194.20879974029958 1.972264001145959 M0.592495952732861 0.3721343679353595 C49.049608012754476 -0.24952382325194766, 98.6221118040383 -0.18800834297202518, 193.53279358614236 0.47919667791575193 M194.0347603764385 0.9181310627609491 C191.62233456498944 16.52526135491207, 192.5306266797241 34.42579717990011, 194.8995903339237 76.12500883080065 M193.70550281275064 -0.6737257139757276 C193.46299772818574 20.144866662938153, 193.66625323255548 39.90121367089451, 192.34636673796922 77.4688085122034 M191.22812970541418 75.04901004768908 C137.6491453967057 76.3241622753162, 82.81731341648846 74.6884331412334, 1.766015311703086 76.32511121965945 M192.31991062033921 76.4055543942377 C149.63461189931257 77.52248740277253, 108.0388870384544 77.7011465140339, 0.855951433070004 76.63162572216243 M-0.5449564252048731 75.40839893557131 C-0.8484749247785657 53.81004983214662, 0.2768925378564746 27.74253301937133, -1.1187441740185022 1.0999759528785944 M0.22871864307671785 77.47761995624751 C-1.2522776262182742 51.14719919851049, -0.8408178524393588 24.005936880409713, -0.11713274847716093 -0.11490174103528261" stroke="#000000" stroke-width="1" fill="none"></path></g><g transform="translate(10 107.75) rotate(0 96.5 38.5)"><path d="M1.6074978206306696 -0.47270033694803715 C45.18381250938401 1.0597953997272997, 93.73853028956802 2.14835866314359, 194.97226400114596 -0.8444006834179163 M0.3721343679353595 -0.7019253922626376 C56.62838367102668 -2.0244721947703512, 113.95889273211361 -0.6107236026320606, 193.47919667791575 -0.6971603287383914 M193.91813106276095 -0.8954694662243128 C191.27178660490551 18.290862960647793, 191.44045696117917 38.45567095819861, 192.12500883080065 76.30127157829702 M192.32627428602427 0.5860606776550412 C192.14333725328558 22.65868668733165, 191.4897886847984 43.08510774858296, 193.4688085122034 76.85569257009774 M191.04901004768908 76.76401199959219 C133.097444381658 75.33719178798609, 70.93592731487006 77.05616047742777, -0.6748887803405523 75.44368418119848 M192.4055543942377 76.5161642478779 C144.75099171781912 76.48941923283972, 95.9162332329899 76.54337893032469, -0.3683742778375745 77.20523450244218 M-1.591601064428687 76.8250189628452 C2.2069060138519854 48.11544754924252, 0.8196948698814959 16.211378073506047, 1.0999759528785944 0.9392214026302099 M0.4776199562475085 76.19290802348405 C0.46670481768436733 49.052511300239715, 0.04144489970989529 21.77915425747633, -0.11490174103528261 -0.42194151412695646" stroke="#000000" stroke-width="1" fill="none"></path></g><g transform="translate(255.75 10) rotate(0 163.5 38.5)"><path d="M-1.0768531500693903 -1.0873989995361464 C73.43366431346278 -0.17745668855949137, 147.2759445459784 -1.6250095017655442, 326.2057724310503 -0.3837007668398515 M-0.593360979936678 0.3888430766180702 C72.09619496689479 0.3558944854434922, 143.407387974486 0.5070026008519843, 327.5596453857469 0.6207961909831949 M326.6550488676875 0.8638921473175287 C328.64398266739204 17.985289544332772, 326.4563389605935 37.59381806012243, 327.8687901105731 78.36742747761309 M326.5590004967525 0.5129787428304553 C326.58091357012273 19.73002002211288, 326.4403217997122 38.82799220196903, 327.13121322263027 76.79346958827227 M326.6610029565251 78.06626482659176 C209.55812985810326 75.10469838284091, 93.70594829399688 76.7763999230925, -0.24509311564789865 76.44560976028599 M326.6496201260975 76.48481565499165 C234.08181272024507 75.87727564721725, 141.57780064795514 75.33594619661469, 0.47085977494615844 77.14660762601113 M0.8139871563762426 76.97402543760836 C-1.5957544263359158 53.513283390086144, -0.39859817585907875 31.51928671915084, 1.8422845210880041 0.9161174390465021 M0.5841656373813748 77.2594820363447 C-0.32633664232678716 45.58211422255262, 0.5890541769843548 15.978487367928018, 0.8379980074241757 -0.9981836276128888" stroke="#000000" stroke-width="1" fill="none"></path></g><g transform="translate(253.25 205.5) rotate(0 165.5 38.5)"><path d="M-1.0768657905741914 -0.8033448067984119 C86.45811174373668 0.5628967694164655, 170.832767118552 0.9783943695965668, 330.6200159924709 -1.0909618390217797 M0.38507650576305313 0.16334568833855465 C108.5997260962335 1.4942935272531017, 217.50655239226958 2.49922442251942, 331.61478278099736 -0.33126007705877947 M331.86389214731753 0.9378431644290686 C329.32733768501316 28.911594487261027, 329.57796681203877 61.1915801698342, 332.3674274776131 76.09177186153829 M331.51297874283046 -0.0031048310920596123 C331.3389433973562 18.796487410645934, 330.83359391028995 38.011581246927385, 330.7934695882723 77.57049549091607 M332.05593633610016 76.31998389152264 C218.05167636600697 76.65865213832427, 107.569614263469 76.20167547475009, -0.5490200782150015 76.76182048366145 M330.4898060443172 76.47378123541903 C220.87527630175367 75.20920245871207, 109.95028068794917 76.31777547411237, 0.14518749525797292 76.8958411976111 M-0.025974562391638756 75.18189879320562 C-0.9219136609975248 55.502522848267105, -0.9925468935910612 37.0892201302573, 0.9161174390465021 1.9049002137035131 M0.259482036344707 76.45737639535218 C-0.25606175634078676 56.4356368378736, 0.5741772117931396 35.963737253844734, -0.9981836276128888 0.6781114982441068" stroke="#000000" stroke-width="1" fill="none"></path></g><g transform="translate(252.25 104.5) rotate(0 167.5 38.5)"><path d="M-0.795487004282467 0.6435682810321971 C111.71926340007253 1.010166298313834, 225.0402345646891 1.4098398259820717, 333.91970924842525 0.3856907353748008 M0.16174794581263882 -0.15591567811011892 C92.38997259217439 -1.2851232951122786, 186.22134454511192 -0.6686189109304217, 334.6719800960835 0.6189780446258819 M335.93784316442907 -1.372609844431281 C333.6173932716902 18.977494577039035, 335.7359839246329 41.566378066502516, 334.0917718615383 75.91952831484377 M334.99689516890794 0.1266983551904559 C334.5167337809969 24.8437992897816, 334.7916436051298 50.2383704315871, 335.5704954909161 77.38784200977534 M334.3266353719864 76.1971771553508 C250.73675744527105 79.58788559854518, 165.80884614063362 78.20774322467838, -0.2358497974097654 77.4522372332133 M334.47892836912456 77.26160201296926 C254.5455156409779 75.03832790855259, 175.82475290959252 75.45133541720801, -0.10313998793644084 76.80509832006348 M-1.8181012067943811 75.43664682842791 C-0.9343300115223974 58.68040870158002, 1.5288994658831507 44.54490765053779, 1.9049002137035131 -0.5617843177169561 M-0.5426236046478152 76.01598004531115 C-0.07704032612033185 61.02580099692568, 0.38819046664051715 44.360980339348316, 0.6781114982441068 -0.8798682587221265" stroke="#000000" stroke-width="1" fill="none"></path></g><g transform="translate(73.5 33.75) rotate(0 23 13)"><text x="0" y="18" font-family="Virgil, Segoe UI Emoji" font-size="20px" fill="#000000" text-anchor="start" style="white-space: pre;" direction="ltr">Logo</text></g><g transform="translate(76 133.25) rotate(0 30.5 13)"><text x="30.5" y="18" font-family="Virgil, Segoe UI Emoji" font-size="20px" fill="#000000" text-anchor="middle" style="white-space: pre;" direction="ltr">Sidbar</text></g><g transform="translate(68.5 236.25) rotate(0 46 13)"><text x="0" y="18" font-family="Virgil, Segoe UI Emoji" font-size="20px" fill="#000000" text-anchor="start" style="white-space: pre;" direction="ltr">Copyright</text></g><g transform="translate(328.5 42.25) rotate(0 49 13)"><text x="0" y="18" font-family="Virgil, Segoe UI Emoji" font-size="20px" fill="#000000" text-anchor="start" style="white-space: pre;" direction="ltr">Navigation</text></g><g transform="translate(311.5 128.25) rotate(0 39 13)"><text x="0" y="18" font-family="Virgil, Segoe UI Emoji" font-size="20px" fill="#000000" text-anchor="start" style="white-space: pre;" direction="ltr">Content</text></g><g transform="translate(327.5 233.25) rotate(0 32 13)"><text x="0" y="18" font-family="Virgil, Segoe UI Emoji" font-size="20px" fill="#000000" text-anchor="start" style="white-space: pre;" direction="ltr">Footer</text></g></svg>