<svg version="1.1" xmlns="http://www.w3.org/2000/svg" viewBox="0 0 594.25 292.25" width="594.25" height="292.25">
  <!-- svg-source:excalidraw -->
  
  <defs>
    <style>
      @font-face {
        font-family: "Virgil";
        src: url("https://excalidraw.com/FG_Virgil.woff2");
      }
      @font-face {
        font-family: "Cascadia";
        src: url("https://excalidraw.com/Cascadia.woff2");
      }
    </style>
  </defs>
  <g transform="translate(13.5 11.75) rotate(0 96.5 38.5)"><path d="M1.7064900491386652 1.9811619725078344 C70.63099147519097 1.7784866527933627, 140.19881298486143 2.552318318309262, 194.90430600382388 -1.2448894176632166 M-0.9057200150564313 -0.010846788994967937 C57.76382622001693 -1.9316730336938053, 114.96130652949215 -0.5210505859646946, 193.41912526916713 -0.4041320336982608 M194.999861786142 -0.6717211399227381 C191.9714210919384 24.767574859689926, 193.1029553703312 49.2567575627938, 191.69298757053912 78.20301749370992 M192.76435656379908 -0.7443088544532657 C192.24851921017282 18.09677949724719, 193.71201890523545 37.391699521616104, 192.30295745562762 76.05934060085565 M194.60749782063067 76.52729966305196 C144.3802578532137 76.18067755403928, 99.13142097722738 77.26924081745557, 1.972264001145959 76.15559931658208 M193.37213436793536 76.29807460773736 C135.09039650941267 77.2625621827785, 77.88291840888559 78.67631077491679, 0.47919667791575193 76.30283967126161 M0.9181310627609491 76.10453053377569 C-0.6849948325101286 58.73478233637288, -0.5163244762364775 42.343509709648785, -0.8749911691993475 -0.698728421702981 M-0.6737257139757276 77.58606067765504 C0.32660491970367733 55.9199456767179, -0.32694364878349 32.607625727355476, 0.46880851220339537 -0.14430742990225554" stroke="#000000" stroke-width="1" fill="none"></path></g><g transform="translate(10 205.25) rotate(0 96.5 38.5)"><path d="M-0.9736361894756556 1.6074978206306696 C39.27257325956598 -2.6373052185494457, 79.61078366991133 -0.984364766450599, 194.20879974029958 1.972264001145959 M0.592495952732861 0.3721343679353595 C49.049608012754476 -0.24952382325194766, 98.6221118040383 -0.18800834297202518, 193.53279358614236 0.47919667791575193 M194.0347603764385 0.9181310627609491 C191.62233456498944 16.52526135491207, 192.5306266797241 34.42579717990011, 194.8995903339237 76.12500883080065 M193.70550281275064 -0.6737257139757276 C193.46299772818574 20.144866662938153, 193.66625323255548 39.90121367089451, 192.34636673796922 77.4688085122034 M191.22812970541418 75.04901004768908 C137.6491453967057 76.3241622753162, 82.81731341648846 74.6884331412334, 1.766015311703086 76.32511121965945 M192.31991062033921 76.4055543942377 C149.63461189931257 77.52248740277253, 108.0388870384544 77.7011465140339, 0.855951433070004 76.63162572216243 M-0.5449564252048731 75.40839893557131 C-0.8484749247785657 53.81004983214662, 0.2768925378564746 27.74253301937133, -1.1187441740185022 1.0999759528785944 M0.22871864307671785 77.47761995624751 C-1.2522776262182742 51.14719919851049, -0.8408178524393588 24.005936880409713, -0.11713274847716093 -0.11490174103528261" stroke="#000000" stroke-width="1" fill="none"></path></g><g transform="translate(253.25 204) rotate(0 165.5 38.5)"><path d="M-1.0768657905741914 -0.8033448067984119 C86.45811174373668 0.5628967694164655, 170.832767118552 0.9783943695965668, 330.6200159924709 -1.0909618390217797 M0.38507650576305313 0.16334568833855465 C108.5997260962335 1.4942935272531017, 217.50655239226958 2.49922442251942, 331.61478278099736 -0.33126007705877947 M331.86389214731753 0.9378431644290686 C329.32733768501316 28.911594487261027, 329.57796681203877 61.1915801698342, 332.3674274776131 76.09177186153829 M331.51297874283046 -0.0031048310920596123 C331.3389433973562 18.796487410645934, 330.83359391028995 38.011581246927385, 330.7934695882723 77.57049549091607 M332.05593633610016 76.31998389152264 C218.05167636600697 76.65865213832427, 107.569614263469 76.20167547475009, -0.5490200782150015 76.76182048366145 M330.4898060443172 76.47378123541903 C220.87527630175367 75.20920245871207, 109.95028068794917 76.31777547411237, 0.14518749525797292 76.8958411976111 M-0.025974562391638756 75.18189879320562 C-0.9219136609975248 55.502522848267105, -0.9925468935910612 37.0892201302573, 0.9161174390465021 1.9049002137035131 M0.259482036344707 76.45737639535218 C-0.25606175634078676 56.4356368378736, 0.5741772117931396 35.963737253844734, -0.9981836276128888 0.6781114982441068" stroke="#000000" stroke-width="1" fill="none"></path></g><g transform="translate(252.2500000000001 10) rotate(0 163.99999999999994 87)"><path d="M-0.8092381586853706 0.6546932984789217 C109.33938399817353 0.9896616983736459, 220.3081636183419 1.396244166552705, 326.9010348453928 0.392357962903794 M0.16454399523299154 -0.158610908267222 C90.44239530695287 -1.2801854273734774, 182.35110666728536 -0.6530238647194232, 327.66630979308445 0.6296779839307804 M328.93784316442895 -1.372609844431281 C326.4500919725186 44.29761280510576, 328.56868262546124 92.20661452263596, 327.0917718615382 172.9195283148438 M327.9968951689078 0.1266983551904559 C327.08896426284673 56.61753553524614, 327.36387408697965 113.78584292251618, 328.57049549091596 174.38784200977537 M327.31499528117473 173.18329919023572 C245.50558267998875 176.59539208518981, 162.33500684020802 175.19139193516972, -0.23992680553512205 174.4600548141256 M327.46992088513974 174.2661241857428 C249.20237068617368 172.04039311444512, 172.1684329098192 172.4605400609424, -0.10492291322823355 173.80172915993924 M-1.8181012067943811 172.43664682842794 C-1.329113782364875 134.66088045816872, 1.134115695040673 99.50585116371514, 1.9049002137035131 -0.5617843177169561 M-0.5426236046478152 173.01598004531118 C-0.6436809943802655 138.09618349559608, -0.1784502016194165 101.50174533668907, 0.6781114982441068 -0.8798682587221265" stroke="#000000" stroke-width="1" fill="none"></path></g><g transform="translate(73.5 32.25) rotate(0 23 13)"><text x="0" y="18" font-family="Virgil, Segoe UI Emoji" font-size="20px" fill="#000000" text-anchor="start" style="white-space: pre;" direction="ltr">Logo</text></g><g transform="translate(68.5 234.75) rotate(0 46 13)"><text x="0" y="18" font-family="Virgil, Segoe UI Emoji" font-size="20px" fill="#000000" text-anchor="start" style="white-space: pre;" direction="ltr">Copyright</text></g><g transform="translate(58.5 131.75) rotate(0 49 13)"><text x="0" y="18" font-family="Virgil, Segoe UI Emoji" font-size="20px" fill="#000000" text-anchor="start" style="white-space: pre;" direction="ltr">Navigation</text></g><g transform="translate(370.5 87.75) rotate(0 39 13)"><text x="0" y="18" font-family="Virgil, Segoe UI Emoji" font-size="20px" fill="#000000" text-anchor="start" style="white-space: pre;" direction="ltr">Content</text></g><g transform="translate(327.5 231.75) rotate(0 32 13)"><text x="0" y="18" font-family="Virgil, Segoe UI Emoji" font-size="20px" fill="#000000" text-anchor="start" style="white-space: pre;" direction="ltr">Footer</text></g><g transform="translate(13 106.25) rotate(0 96.5 38.5)"><path d="M-0.41746268421411514 0.6587703004479408 C61.52845281101764 2.581515931300819, 126.00722810849548 2.7164043418690564, 194.1511348709464 -1.5686445459723473 M0.8863975889980793 -0.7019814737141132 C58.15780355520547 -0.7766719606146217, 114.06957893669606 -0.4815196540579201, 193.35552631691098 -0.38915638998150826 M191.80756225436926 -0.16241934150457382 C193.47690149363132 14.991643344238403, 193.3274523836002 32.57927689179779, 191.45613875240088 77.27371714264154 M193.724685061723 -0.7273855693638325 C193.32873626638204 24.700301798060536, 193.3500989286974 51.30811535567045, 193.2852330096066 77.48260672017932 M194.43489279597998 76.71015474945307 C137.7364081736654 74.9099385132268, 79.07029507234692 77.98206752438098, 1.0967978462576866 76.52883670479059 M192.5025057680905 76.45593149587512 C129.77026985250413 75.656637881957, 67.72942874282597 75.87733492728323, 0.9944387562572956 77.55320329591632 M-1.4986058250069618 77.79822108894587 C-1.486395560465753 55.32879506759345, 0.9159284007921815 37.30124068930744, 1.3209148868918419 1.8825051560997963 M0.7424427159130573 77.45233983919024 C1.3367435977980495 59.07622524760663, 0.20563281040638687 42.26280520558357, -0.5372421853244305 0.7824722044169903" stroke="#000000" stroke-width="1" fill="none"></path></g></svg>